# xmcd CD database file
#
# Track frame offsets:
#	150
#	12702
#	25450
#	34770
#	45407
#	55560
#	67242
#	76339
#	86985
#	97540
#	109580
#	119100
#	128407
#	139680
#	149965
#	160635
#	171945
#	182905
#
# Disc length: 2563 seconds
#
# Revision: 2
# Processed by: cddbd v1.5.1PL2 Copyright (c) Steve Scherf et al.
# Submitted via: CDex 1.51
#
DISCID=fa0a0112
DTITLE=Paul Mauriat - 1965... My First Recordings
DYEAR=1995
DGENRE=Instrumental
TTITLE0=Io Che Non Vivo `65
TTITLE1=La Boheme
TTITLE2=Vous Les Femmes
TTITLE3=La Nuit
TTITLE4=It`s Not Unusual
TTITLE5=The Little Drummer Boy
TTITLE6=Le Rossignol Anglais
TTITLE7=Il Silenzio
TTITLE8=Aux Jeunes Loups
TTITLE9=Capri C`est Fini
TTITLE10=Attends Ou Va T`en
TTITLE11=N`avoue Jamais
TTITLE12=Une Petite Cantate
TTITLE13=Mes Mains Sur Tes Hanches
TTITLE14=Le Ciel, Le Soleil Et La Mer
TTITLE15=Love In Every Room
TTITLE16=Comme Toujours
TTITLE17=Mon Amie La Rose
EXTD=YEAR: 1995
EXTT0=
EXTT1=
EXTT2=
EXTT3=
EXTT4=
EXTT5=
EXTT6=
EXTT7=
EXTT8=
EXTT9=
EXTT10=
EXTT11=
EXTT12=
EXTT13=
EXTT14=
EXTT15=
EXTT16=
EXTT17=
PLAYORDER=
